# xmcd CD database file
#
# Track frame offsets:
#	150
#	23533
#	60915
#	101309
#	132525
#	161041
#	190197
#
# Disc length: 2963 seconds
#
# Revision: 1
# Processed by: cddbd v1.5.2PL0 Copyright (c) Steve Scherf et al.
# Submitted via: CDex 1.70beta2
#
DISCID=4f0b9107
DTITLE=De Paises Project - Guayaland
DYEAR=2007
DGENRE=Jazz
TTITLE0=Chasing Sadhana
TTITLE1=Direccion
TTITLE2=Caucacian Blues
TTITLE3=Ophelia
TTITLE4=Retrospectiva
TTITLE5=Short Cut
TTITLE6=Mazucamba
EXTD=YEAR: 2007
EXTT0=
EXTT1=
EXTT2=
EXTT3=
EXTT4=
EXTT5=
EXTT6=
PLAYORDER=
